# xmcd
#
# Track frame offsets:
#	150
#	19691
#	39139
#	59912
#	79417
#	105630
#	120154
#	140016
#	158033
#	178386
#	197327
#	218619
#
# Disc length: 3388 seconds
#
# Revision: 1376249
# Processed by: cddbd v1.5.2PL0 Copyright (c) Steve Scherf et al.
# Submitted via: EZCDAudioConverter 8.0.2.1
#
DISCID=9f0d3a0c
DTITLE=刀郎 - 2002年的第一场雪
DYEAR=2004
DGENRE=World Pop
TTITLE0=2002年的第一场雪
TTITLE1=新阿瓦尔古丽
TTITLE2=新疆好
TTITLE3=萨拉姆毛主席
TTITLE4=艾里甫与赛乃姆
TTITLE5=情人
TTITLE6=草原之夜
TTITLE7=祝酒歌
TTITLE8=敖包相会
TTITLE9=雨中飘荡的回忆
TTITLE10=驼铃
TTITLE11=冲动的惩罚
EXTD=
EXTT0=
EXTT1=
EXTT2=
EXTT3=
EXTT4=
EXTT5=
EXTT6=
EXTT7=
EXTT8=
EXTT9=
EXTT10=
EXTT11=
PLAYORDER=
